<?xml version="1.0" standalone="no"?>
<!DOCTYPE svg PUBLIC "-//W3C//DTD SVG 20010904//EN"
 "http://www.w3.org/TR/2001/REC-SVG-20010904/DTD/svg10.dtd">
<svg version="1.0" xmlns="http://www.w3.org/2000/svg"
 width="3664.000000pt" height="3664.000000pt" viewBox="0 0 3664.000000 3664.000000"
 preserveAspectRatio="xMidYMid meet">
<metadata>
Created by potrace 1.14, written by Peter Selinger 2001-2017
</metadata>
<g transform="translate(0.000000,3664.000000) scale(0.100000,-0.100000)"
fill="#000000" stroke="none">
<path d="M8506 22422 c-3 -2 -834 -11 -1526 -16 -162 -1 -301 -5 -307 -9 -7
-5 -13 -5 -13 0 0 4 -43 8 -95 8 -52 0 -95 -4 -95 -8 0 -4 -7 -4 -15 1 -9 4
-38 5 -66 2 -27 -4 -52 -3 -55 2 -3 5 -9 6 -14 3 -5 -3 -31 -8 -57 -10 -26 -3
-57 -7 -69 -10 -12 -2 -39 -7 -60 -10 -72 -11 -240 -54 -350 -89 -60 -20 -112
-35 -117 -35 -4 -1 -22 -8 -40 -18 -17 -9 -35 -17 -39 -18 -3 0 -10 -3 -14 -7
-4 -5 -17 -8 -29 -8 -11 0 -25 -4 -31 -8 -5 -4 -54 -28 -109 -52 -55 -24 -103
-48 -106 -53 -3 -5 -10 -8 -15 -8 -14 1 -138 -61 -146 -73 -4 -6 -8 -7 -8 -3
0 5 -12 0 -27 -11 -16 -10 -43 -24 -60 -31 -18 -8 -33 -17 -33 -22 0 -5 -6 -9
-13 -9 -8 0 -42 -18 -76 -40 -34 -22 -64 -40 -67 -40 -3 0 -32 -18 -65 -40
-33 -22 -63 -40 -65 -40 -8 0 -79 -54 -82 -62 -2 -5 -9 -8 -16 -8 -7 0 -24 -9
-37 -20 -12 -12 -39 -31 -59 -43 -19 -11 -40 -26 -46 -32 -7 -5 -22 -18 -35
-27 -52 -36 -148 -107 -166 -122 -10 -8 -47 -38 -83 -66 -90 -72 -250 -206
-326 -275 -192 -174 -419 -397 -590 -581 -164 -176 -195 -211 -269 -298 -27
-33 -59 -70 -70 -82 -12 -12 -32 -37 -45 -55 -14 -18 -32 -39 -41 -48 -8 -9
-31 -36 -49 -61 -19 -25 -39 -49 -45 -55 -6 -5 -29 -32 -50 -60 -22 -27 -42
-52 -46 -55 -3 -3 -10 -12 -15 -21 -5 -9 -21 -32 -36 -50 -15 -19 -34 -43 -41
-53 -13 -18 -33 -19 -328 -21 -255 -2 -327 -6 -384 -20 -38 -9 -74 -18 -80
-19 -92 -20 -304 -114 -475 -211 -153 -87 -169 -97 -189 -113 -9 -7 -20 -12
-25 -11 -5 0 -12 -3 -15 -8 -3 -5 -42 -33 -86 -63 -96 -64 -293 -209 -317
-233 -9 -9 -20 -17 -24 -17 -4 0 -19 -11 -33 -24 -14 -14 -62 -55 -106 -93
-178 -151 -415 -403 -448 -475 -6 -16 -15 -28 -18 -28 -6 0 -27 -44 -38 -80
-10 -31 3 -997 13 -1008 3 -2 1 -12 -4 -22 -5 -10 -7 -20 -3 -24 3 -3 7 -83 9
-178 4 -269 14 -723 15 -723 0 0 2 -9 4 -21 15 -76 97 -207 189 -298 70 -70
200 -176 215 -176 6 0 11 -3 11 -7 0 -17 192 -116 280 -145 74 -25 78 -25 435
-24 l359 1 2 40 c9 163 20 229 68 415 8 29 38 115 53 150 20 47 110 230 126
255 36 58 111 171 117 175 3 3 19 23 35 45 28 37 157 177 198 214 232 207 506
341 747 367 80 8 260 10 260 3 0 -4 13 -4 29 1 16 4 32 6 35 3 2 -3 19 -6 38
-8 124 -12 384 -74 433 -104 6 -3 12 -6 15 -7 7 -1 59 -23 100 -41 51 -24 174
-96 178 -105 2 -5 8 -8 13 -8 6 0 15 -4 22 -10 7 -5 37 -29 67 -52 30 -23 63
-49 73 -57 43 -36 159 -161 206 -221 27 -36 57 -73 65 -82 9 -10 16 -20 16
-23 0 -2 15 -28 34 -57 83 -131 202 -406 222 -517 3 -14 7 -28 10 -33 3 -5 7
-18 10 -31 2 -12 6 -31 8 -42 26 -116 37 -171 40 -198 3 -18 8 -51 11 -74 l8
-43 46 -1 c25 0 161 -2 301 -3 141 -1 261 -5 268 -10 6 -4 12 -4 12 1 0 9 87
10 96 0 3 -3 16 -2 29 3 13 5 25 6 28 4 8 -8 667 -12 667 -4 0 4 -17 23 -37
42 -71 65 -276 291 -385 423 -127 153 -328 432 -328 454 0 5 -4 11 -9 13 -17
6 -181 319 -219 418 -25 67 -35 93 -36 100 -1 3 -4 10 -7 15 -6 9 -39 118 -40
130 0 2 -5 19 -10 37 -6 18 -12 42 -14 53 -3 11 -8 34 -12 50 -3 17 -7 37 -8
45 -1 8 -6 44 -11 80 -11 81 -11 367 0 440 4 30 9 64 11 75 6 37 25 128 36
169 6 23 13 48 14 56 2 8 4 16 5 18 2 1 3 5 5 10 1 4 4 14 8 22 3 8 15 44 27
80 12 36 26 69 31 75 5 5 9 15 9 22 0 42 181 372 289 528 23 33 47 68 54 78 6
11 22 31 34 45 13 15 23 30 23 34 0 4 11 18 25 32 14 14 25 28 25 31 0 4 16
23 35 43 19 20 35 43 35 50 0 6 4 12 8 12 5 0 32 28 60 63 28 34 71 84 96 110
25 27 46 50 46 52 0 2 43 47 95 100 52 53 95 99 95 101 0 3 -285 2 -632 -1
-348 -4 -798 -8 -1000 -9 l-366 -3 9 25 c6 14 23 55 39 90 17 35 30 68 30 73
0 5 4 9 9 9 5 0 13 10 17 22 14 45 219 357 254 388 3 3 24 27 45 55 22 27 54
63 70 80 17 17 47 50 68 73 20 23 37 39 37 36 0 -3 12 9 28 27 15 18 47 51 71
74 24 22 49 45 55 50 12 11 146 125 181 154 11 9 49 37 85 64 36 26 71 52 78
58 7 6 41 29 75 51 34 23 64 45 65 50 2 4 7 8 11 8 5 0 48 25 97 55 118 72
239 136 417 219 55 25 103 46 108 46 5 0 17 5 27 10 20 12 178 70 207 76 11 2
31 8 45 13 26 10 159 44 220 57 43 9 2130 11 2130 3 0 -4 17 -3 37 1 20 5 40
7 45 4 10 -6 107 -6 135 0 13 3 25 1 28 -4 3 -5 18 -5 33 -1 15 4 43 6 62 4
19 -2 44 -4 55 -3 11 1 27 1 35 0 8 0 26 0 40 1 14 0 31 0 38 0 23 -2 37 -2
104 0 67 2 68 2 123 55 30 29 55 58 55 64 0 5 4 10 9 10 11 0 92 121 129 195
63 126 91 237 88 342 -2 70 -6 87 -30 123 -18 27 -43 49 -71 61 -42 19 -68 19
-550 17 -279 -2 -508 -4 -509 -6z"/>
<path d="M11840 20330 c-11 -44 -20 -85 -26 -130 -3 -19 -9 -51 -14 -70 -5
-19 -11 -48 -14 -65 -3 -16 -10 -52 -16 -80 -6 -27 -12 -61 -14 -75 -2 -14 -5
-25 -6 -25 -1 0 -3 -11 -5 -25 -2 -14 -17 -92 -34 -175 -17 -82 -32 -159 -34
-170 -1 -11 -6 -25 -9 -30 -21 -34 1 -35 568 -33 l559 3 12 65 c7 36 15 81 19
100 9 50 12 65 14 65 1 0 3 9 4 20 3 20 14 82 31 165 3 14 8 41 11 60 4 19 8
44 11 55 15 73 51 260 58 300 3 17 8 41 10 55 l5 25 -560 0 -561 0 -9 -35z"/>
<path d="M8790 20135 c-71 -19 -125 -51 -164 -97 -46 -53 -59 -100 -60 -210
-1 -48 -4 -89 -8 -93 -3 -3 -186 -7 -406 -9 -219 -2 -404 -6 -411 -10 -6 -4
-11 -3 -11 2 0 8 -63 7 -87 -2 -7 -3 -15 -1 -18 5 -4 5 -11 6 -17 3 -5 -4
-148 -8 -317 -9 -688 -6 -806 -9 -819 -20 -7 -5 -18 -15 -25 -20 -7 -6 -37
-30 -67 -55 -258 -210 -474 -436 -652 -684 -48 -66 -88 -127 -88 -133 0 -7 -4
-13 -9 -13 -5 0 -11 -8 -14 -17 -4 -10 -17 -36 -30 -58 -36 -60 -77 -135 -77
-140 0 -3 -12 -31 -26 -62 -43 -96 -52 -116 -65 -163 -7 -25 -16 -49 -19 -55
-6 -8 -22 -64 -36 -127 -1 -5 -2 -9 -4 -10 -1 -2 -3 -10 -5 -18 -17 -88 -25
-130 -29 -160 -3 -19 -8 -57 -12 -85 -8 -56 -8 -341 0 -395 3 -19 7 -48 10
-65 3 -16 7 -46 10 -65 9 -63 19 -113 28 -140 7 -17 28 -96 33 -119 9 -40 48
-150 84 -236 22 -52 99 -207 135 -270 53 -96 178 -285 188 -285 4 0 8 -6 8
-13 0 -7 8 -22 18 -33 9 -10 30 -37 46 -59 17 -22 32 -42 36 -45 3 -3 30 -34
60 -70 106 -126 238 -262 373 -384 l87 -79 162 -3 c90 -1 318 -5 508 -9 445
-8 467 -8 479 0 6 3 11 3 11 -2 0 -4 118 -9 263 -11 461 -5 515 -7 522 -14 4
-4 15 -4 24 0 13 7 62 8 126 3 6 -1 12 -12 13 -24 5 -66 91 -156 164 -171 13
-3 39 -9 58 -14 103 -25 270 14 346 81 39 34 73 81 80 112 2 6 5 21 9 35 3 14
6 199 6 413 0 213 3 387 7 388 15 2 419 8 828 12 238 3 436 7 442 11 6 3 13 3
15 -1 3 -5 29 -7 59 -5 29 1 60 3 68 3 38 0 98 26 131 56 30 28 82 111 79 128
0 3 7 22 15 42 24 57 35 204 22 298 -15 103 -19 118 -58 198 -23 49 -54 85
-99 117 -28 20 -21 20 -930 25 -289 2 -528 4 -531 4 -3 1 -6 92 -6 204 -1 111
-2 257 -3 324 -1 67 1 126 4 132 4 5 3 12 -1 14 -10 6 -9 194 1 224 6 18 11
21 29 14 12 -5 31 -5 42 -1 11 4 27 4 36 -1 9 -5 19 -6 22 -3 3 3 182 7 399 9
879 7 882 7 908 20 34 18 90 69 90 83 0 5 4 12 8 14 14 5 61 148 69 208 8 65
9 210 0 260 -21 129 -72 222 -142 261 l-40 23 -710 1 -709 0 -3 350 c-2 193
-3 368 -4 390 0 22 0 45 1 50 1 6 1 12 0 15 -1 3 -4 19 -6 35 -14 92 -75 150
-209 201 -34 13 -187 12 -235 -1z"/>
<path d="M31390 19990 c-7 -5 -23 -77 -44 -210 -3 -14 -6 -27 -7 -30 -1 -3 -3
-9 -4 -15 -1 -5 -4 -23 -8 -40 -4 -16 -9 -46 -12 -65 -3 -19 -8 -42 -10 -50
-6 -20 -15 -68 -20 -110 -3 -19 -8 -44 -12 -55 -3 -11 -7 -29 -9 -40 -2 -11
-5 -30 -8 -41 -2 -12 -7 -37 -10 -55 -4 -28 -23 -120 -51 -253 -3 -10 -6 -20
-8 -22 -3 -3 -60 -5 -104 -4 -13 1 -38 1 -55 1 -18 0 -46 1 -63 2 -16 1 -40
-1 -52 -5 -12 -4 -25 -3 -27 1 -3 5 -25 5 -48 1 -24 -5 -47 -6 -52 -3 -5 3
-34 5 -65 4 -31 -1 -64 -2 -73 -2 -16 0 -24 -22 -19 -51 0 -4 -3 -18 -8 -31
-5 -13 -12 -48 -16 -78 -4 -30 -10 -58 -13 -63 -3 -6 -7 -19 -8 -30 -3 -29
-13 -86 -20 -116 -3 -14 -11 -59 -19 -100 -7 -41 -16 -88 -20 -105 -3 -16 -8
-43 -10 -59 -2 -15 -7 -35 -9 -45 -3 -9 -8 -32 -11 -51 -3 -19 -8 -42 -11 -52
-4 -15 16 -16 232 -17 131 -1 240 -3 242 -6 2 -2 14 0 26 5 41 15 49 0 35 -66
-7 -33 -13 -63 -14 -69 0 -9 -4 -27 -21 -120 -2 -11 -15 -77 -29 -146 -14 -69
-27 -139 -29 -155 -2 -16 -9 -47 -14 -69 -6 -22 -13 -53 -16 -70 -3 -16 -7
-41 -10 -55 -3 -13 -8 -42 -11 -65 -3 -22 -8 -47 -10 -55 -2 -8 -7 -28 -10
-45 -2 -16 -7 -41 -10 -55 -3 -14 -8 -38 -10 -55 -3 -16 -8 -37 -10 -45 -4
-15 -9 -42 -21 -115 -3 -22 -9 -44 -12 -49 -3 -5 -6 -21 -8 -35 -2 -30 -13
-89 -19 -111 -2 -8 -7 -31 -10 -50 -3 -19 -10 -57 -15 -85 -27 -145 -38 -346
-26 -480 15 -164 82 -314 193 -431 49 -52 125 -114 139 -114 4 0 15 -6 23 -14
25 -21 179 -82 251 -100 183 -44 258 -48 873 -50 l487 -1 10 30 c9 28 17 69
25 120 2 11 11 54 20 95 9 41 18 84 19 95 2 11 6 34 10 50 3 17 8 41 11 55 3
14 9 48 15 75 17 82 20 99 26 130 2 17 10 58 18 92 l12 62 -325 1 c-385 0
-412 2 -511 34 -144 46 -184 164 -135 393 13 59 26 124 29 143 3 19 8 46 11
60 3 14 8 40 11 59 5 32 8 45 19 94 3 12 8 38 11 57 3 19 10 54 15 78 5 23 12
59 15 80 3 20 7 45 10 54 6 20 13 54 19 93 2 17 9 47 14 67 5 20 6 39 4 42 -3
2 -1 11 3 18 5 7 10 22 11 33 2 11 10 56 19 100 8 44 17 91 19 105 6 37 15 83
21 101 2 9 7 32 9 50 3 19 9 49 15 68 5 19 7 38 4 42 -3 5 -1 9 3 9 5 0 9 10
9 23 0 12 4 39 8 60 l8 37 62 1 c33 1 65 0 71 -1 8 -1 57 -1 140 1 42 2 487 0
515 -1 19 -1 42 -2 50 -2 8 1 81 1 162 1 l146 1 7 42 c8 49 8 47 29 146 9 41
14 78 10 83 -3 5 0 9 5 9 6 0 10 3 9 8 -1 4 2 27 7 52 4 25 9 52 10 60 1 8 4
24 8 35 3 11 8 37 11 57 3 21 10 57 15 80 6 24 12 54 15 68 3 14 7 35 10 47 2
11 8 42 11 67 l7 46 -43 1 c-24 1 -48 0 -54 -1 -5 -2 -19 -2 -30 -1 -11 1 -27
2 -35 2 -28 -1 -75 0 -100 2 -14 2 -35 -1 -47 -5 -12 -4 -25 -3 -27 1 -3 5
-25 5 -48 1 -24 -5 -50 -4 -59 1 -9 5 -30 5 -47 0 -17 -5 -32 -7 -35 -5 -8 9
-82 10 -104 2 -12 -4 -25 -3 -27 1 -3 5 -25 5 -48 1 -24 -5 -50 -4 -59 1 -9 4
-19 6 -22 3 -5 -5 -57 -6 -112 -1 -16 1 -39 0 -50 -4 -11 -3 -29 -3 -40 1 -11
4 -30 3 -43 -1 -13 -5 -21 -5 -18 0 3 5 -8 6 -27 1 -35 -7 -74 10 -63 28 3 5
8 24 11 43 3 19 8 45 10 59 3 14 7 36 10 50 3 14 10 50 16 80 6 30 13 71 15
90 3 19 9 49 14 65 5 17 12 50 15 75 4 24 8 47 10 50 2 3 6 26 10 50 3 25 11
64 16 88 5 23 12 59 15 80 3 20 8 40 9 43 2 3 7 28 11 55 3 27 8 58 11 69 3
11 7 31 10 45 l5 25 -557 0 c-306 0 -560 -2 -565 -5z"/>
<path d="M15976 19083 c-1 -1 -31 -5 -66 -8 -36 -4 -73 -9 -82 -11 -19 -6 -61
-14 -93 -18 -11 -2 -27 -6 -35 -9 -8 -3 -46 -15 -85 -27 -75 -23 -101 -34
-210 -86 -93 -45 -179 -94 -183 -105 -2 -5 -8 -9 -13 -9 -10 0 -136 -88 -189
-132 -79 -66 -155 -134 -174 -155 -11 -13 -23 -23 -28 -23 -9 0 -9 -1 22 150
12 58 23 114 25 125 2 11 7 34 10 50 3 17 8 44 11 60 3 17 9 48 14 70 5 22 7
41 5 44 -8 7 -50 7 -72 -1 -13 -4 -25 -3 -28 3 -4 5 -11 7 -16 3 -5 -3 -34 -5
-64 -4 -30 0 -62 1 -70 0 -8 0 -21 0 -27 0 -7 -1 -42 -1 -78 -1 -36 1 -73 1
-82 1 -10 0 -40 0 -67 1 -27 1 -53 -1 -57 -3 -5 -3 -18 -2 -29 2 -11 4 -30 4
-42 -1 -15 -6 -23 -5 -23 2 0 8 -4 8 -13 0 -8 -6 -16 -8 -19 -6 -9 9 -81 12
-103 4 -11 -3 -29 -3 -40 1 -11 4 -30 4 -42 -1 -16 -6 -23 -5 -23 3 0 9 -3 9
-11 1 -6 -6 -22 -8 -38 -4 -28 7 -89 6 -98 -2 -2 -3 -18 -1 -34 3 -18 5 -29 5
-29 -1 0 -6 -4 -7 -10 -4 -5 3 -11 -4 -12 -17 -1 -28 -3 -35 -11 -73 -10 -41
-16 -74 -23 -115 -3 -19 -10 -55 -16 -80 -5 -25 -12 -56 -14 -70 -3 -14 -11
-58 -19 -97 -9 -40 -17 -88 -19 -105 -3 -18 -5 -33 -6 -33 -2 0 -9 -35 -46
-230 -2 -11 -6 -31 -9 -45 -2 -14 -7 -37 -9 -53 -3 -15 -7 -35 -10 -45 -3 -9
-7 -34 -11 -56 -3 -21 -7 -41 -9 -45 -2 -3 -7 -26 -10 -51 -4 -25 -11 -63 -16
-85 -6 -22 -12 -53 -15 -70 -2 -16 -6 -41 -9 -55 -5 -21 -30 -149 -42 -216 -2
-12 -13 -66 -24 -120 -12 -55 -23 -115 -26 -134 -3 -19 -7 -43 -10 -52 -3 -10
-7 -30 -10 -45 -2 -16 -10 -53 -16 -83 -6 -30 -12 -64 -14 -75 -2 -11 -5 -30
-8 -41 -2 -12 -7 -39 -10 -60 -4 -22 -8 -46 -11 -54 -4 -16 -12 -55 -21 -105
-3 -16 -10 -50 -15 -75 -5 -25 -12 -58 -15 -75 -3 -16 -9 -48 -14 -69 -5 -22
-7 -44 -4 -48 3 -4 0 -8 -6 -8 -6 0 -9 -4 -6 -8 2 -4 -2 -38 -10 -75 -7 -37
-16 -80 -18 -95 -15 -84 -24 -127 -26 -127 -1 0 -3 -9 -4 -20 -6 -43 -48 -261
-53 -275 -3 -8 -7 -25 -9 -36 -7 -53 -15 -97 -18 -103 -2 -3 -7 -26 -10 -51
-3 -25 -10 -60 -15 -77 -6 -22 -6 -35 1 -39 5 -4 254 -7 553 -7 428 0 547 2
559 12 9 8 14 16 12 20 -3 3 4 49 15 101 11 52 22 106 24 120 6 34 14 70 20
100 3 14 8 36 11 50 3 14 7 39 9 55 3 17 7 41 10 55 3 14 12 61 20 104 8 43
17 86 19 95 3 9 7 27 10 41 7 44 19 104 23 125 2 11 6 31 9 45 2 14 7 36 9 50
3 14 8 39 11 55 9 44 12 60 14 60 1 0 3 9 4 20 5 33 15 87 26 140 6 28 12 59
14 70 4 22 24 128 31 163 2 13 6 31 9 40 3 9 8 34 12 56 3 21 8 48 10 60 3 11
7 30 9 41 2 11 8 43 14 70 6 28 14 64 17 80 3 17 8 37 11 45 8 20 9 21 18 55
12 48 77 219 88 233 6 7 21 36 34 65 14 29 32 60 40 69 9 10 12 18 7 18 -5 0
-4 4 1 8 6 4 22 23 35 42 36 51 49 66 115 134 52 54 182 156 198 156 3 0 34
13 69 29 35 16 77 32 93 35 17 4 41 9 55 12 14 3 76 7 138 9 85 2 128 -2 170
-14 136 -42 219 -129 257 -271 13 -51 20 -184 10 -201 -4 -6 -8 -32 -10 -57
-3 -49 -33 -231 -41 -243 -2 -4 -6 -24 -8 -45 -3 -22 -7 -50 -11 -64 -3 -14
-8 -41 -11 -60 -8 -47 -12 -65 -14 -65 -1 0 -3 -9 -5 -20 -6 -40 -21 -125 -30
-165 -7 -31 -11 -54 -31 -160 -9 -47 -18 -94 -21 -105 -2 -11 -6 -31 -9 -45
-2 -14 -7 -38 -11 -55 -3 -16 -7 -39 -9 -50 -3 -19 -5 -31 -20 -98 -3 -16 -7
-38 -9 -50 -5 -31 -42 -223 -54 -277 -5 -25 -12 -61 -15 -80 -6 -37 -13 -74
-21 -115 -3 -14 -7 -36 -10 -50 -3 -14 -7 -35 -9 -47 -2 -13 -7 -34 -10 -48
-3 -14 -8 -38 -11 -54 -2 -16 -9 -52 -14 -80 -6 -28 -13 -62 -15 -76 -3 -14
-7 -36 -10 -50 -15 -69 -17 -88 -8 -94 6 -3 13 -2 17 4 4 6 11 7 17 4 9 -6
1036 -9 1063 -4 6 1 13 2 16 2 3 -1 6 4 6 11 0 12 8 60 18 107 2 14 7 36 10
50 2 14 7 39 10 55 3 17 7 39 9 50 13 60 66 336 72 370 3 22 8 43 10 46 2 4 6
24 9 45 4 22 8 47 11 57 3 10 7 30 10 45 4 28 11 64 14 72 1 3 2 8 2 11 -1 6
34 185 64 329 3 14 7 36 9 50 2 14 7 36 10 50 3 14 7 37 10 53 17 97 23 122
25 122 1 0 3 9 4 20 3 21 18 104 31 165 3 14 8 41 11 60 3 19 7 43 10 52 3 10
7 29 10 43 10 59 13 74 27 145 9 41 19 91 22 110 3 19 8 46 10 60 12 59 15 78
21 125 4 28 8 66 10 85 1 19 3 35 4 35 9 0 13 292 6 350 -15 116 -48 246 -68
269 -4 6 -8 17 -8 26 0 9 -5 21 -12 28 -6 6 -13 18 -14 25 -2 13 -43 82 -69
115 -21 27 -144 152 -150 152 -5 0 -64 39 -75 50 -18 18 -183 88 -215 91 -5 1
-17 5 -25 9 -8 4 -33 11 -55 14 -22 3 -51 8 -65 11 -65 13 -344 27 -354 18z"/>
<path d="M20027 19084 c-1 -1 -54 -5 -117 -8 -63 -3 -126 -8 -140 -10 -14 -2
-47 -7 -75 -11 -99 -13 -121 -17 -210 -36 -49 -11 -99 -22 -111 -25 -34 -7
-226 -71 -269 -90 -22 -10 -45 -19 -52 -20 -6 -1 -60 -28 -120 -59 -59 -32
-118 -63 -130 -69 -13 -6 -23 -14 -23 -18 0 -5 -6 -8 -14 -8 -8 0 -21 -6 -28
-13 -7 -7 -35 -28 -63 -47 -132 -89 -364 -303 -440 -405 -17 -22 -38 -49 -48
-60 -10 -11 -34 -44 -55 -75 -20 -30 -40 -57 -43 -60 -3 -3 -14 -21 -25 -40
-10 -19 -22 -37 -25 -40 -7 -5 -61 -101 -90 -160 -51 -104 -125 -283 -129
-315 0 -3 -7 -23 -15 -46 -17 -48 -17 -47 -49 -199 -35 -161 -40 -219 -40
-430 0 -174 5 -262 19 -320 3 -14 8 -36 11 -50 2 -14 6 -35 9 -47 3 -13 5 -24
4 -25 -6 -19 119 -308 133 -308 4 0 8 -5 8 -11 0 -13 68 -113 104 -154 53 -59
94 -100 123 -125 52 -45 112 -90 118 -90 3 0 15 -8 26 -19 53 -49 408 -201
470 -201 9 0 19 -3 23 -7 3 -4 17 -8 29 -10 12 -2 45 -8 72 -13 28 -5 64 -12
80 -15 17 -3 41 -7 55 -10 14 -3 56 -7 95 -11 38 -3 90 -7 115 -10 50 -4 361
-4 430 0 25 2 77 7 115 11 39 4 84 9 100 10 17 1 41 6 55 9 14 4 41 9 60 11
19 2 46 6 60 9 13 3 42 8 63 11 22 4 50 10 63 15 13 5 24 8 24 5 0 -2 23 3 52
11 28 9 60 18 70 20 10 2 26 6 36 8 19 4 119 35 142 43 8 4 24 8 35 10 23 4
38 17 41 35 1 7 5 25 8 41 2 15 10 53 16 85 5 31 12 68 15 82 7 35 25 135 31
167 2 16 7 42 11 58 9 42 10 45 17 85 10 63 16 94 26 145 6 28 12 66 15 85 3
19 9 50 14 68 5 17 8 32 5 32 -3 0 0 9 6 20 9 16 8 20 -5 20 -8 0 -15 -3 -15
-8 0 -4 -15 -13 -32 -21 -18 -8 -35 -18 -38 -21 -7 -11 -114 -64 -122 -62 -5
1 -8 -2 -8 -8 0 -5 -5 -10 -10 -10 -6 0 -31 -10 -58 -22 -26 -13 -94 -38 -152
-57 -58 -19 -112 -37 -120 -39 -8 -3 -18 -5 -21 -4 -4 1 -22 -3 -40 -8 -19 -6
-54 -13 -79 -16 -25 -3 -58 -9 -75 -13 -42 -11 -340 -11 -400 0 -27 5 -63 11
-79 14 -34 5 -64 14 -91 24 -11 5 -40 17 -65 27 -39 15 -68 33 -169 99 -8 6
-26 23 -40 39 -13 15 -30 34 -37 40 -22 23 -80 120 -98 166 -51 127 -60 183
-60 360 0 156 7 223 35 350 6 25 12 52 14 60 15 68 130 322 154 340 4 3 17 21
29 40 35 57 175 209 222 240 12 8 28 20 35 27 20 19 148 98 188 116 87 39 104
46 149 61 26 9 62 18 80 21 17 3 34 8 37 10 17 10 194 28 276 28 73 0 214 -11
226 -18 3 -3 24 -7 45 -9 72 -10 183 -49 334 -118 47 -22 87 -40 90 -41 3 -1
48 -27 100 -58 52 -32 96 -56 97 -55 1 1 5 17 8 36 3 19 10 58 15 85 13 66 19
93 26 135 4 19 8 44 11 55 2 11 8 43 13 70 6 28 12 61 15 75 3 14 7 36 10 50
7 39 14 71 25 125 6 28 12 64 14 80 3 17 11 57 18 90 24 100 22 105 -50 132
-35 13 -74 25 -85 27 -12 3 -23 5 -24 7 -2 1 -6 2 -10 4 -5 1 -15 4 -23 8 -19
7 -138 38 -165 42 -11 2 -20 4 -20 5 0 1 -9 3 -20 5 -11 2 -36 7 -55 11 -19 4
-42 8 -50 9 -8 2 -33 6 -55 9 -22 4 -49 8 -60 11 -11 2 -54 7 -95 11 -41 3
-85 7 -98 9 -12 1 -25 5 -28 8 -4 3 -14 2 -24 -3 -10 -5 -20 -6 -24 -3 -5 6
-253 12 -259 7z"/>
<path d="M23666 19082 c-2 -1 -34 -5 -72 -7 -66 -5 -90 -8 -186 -21 -24 -3
-92 -17 -153 -30 -60 -14 -119 -27 -129 -29 -37 -8 -209 -68 -235 -81 -14 -8
-30 -14 -35 -14 -9 0 -217 -102 -250 -123 -84 -52 -227 -152 -256 -178 -19
-17 -48 -39 -65 -50 -16 -10 -26 -19 -22 -19 4 0 -9 -15 -30 -32 -56 -50 -164
-164 -213 -228 -14 -18 -29 -37 -35 -44 -78 -91 -261 -387 -255 -412 1 -4 -2
-10 -7 -13 -5 -3 -17 -24 -25 -46 -9 -22 -24 -58 -34 -80 -10 -22 -19 -48 -21
-58 -2 -10 -10 -31 -18 -47 -9 -17 -15 -32 -15 -35 0 -3 0 -6 -1 -7 0 -2 -2
-10 -4 -18 -2 -8 -15 -58 -29 -110 -14 -52 -28 -113 -31 -135 -3 -22 -8 -47
-10 -55 -4 -15 -14 -89 -21 -165 -11 -111 -5 -375 11 -455 3 -13 7 -42 10 -65
4 -22 11 -58 17 -80 6 -22 11 -44 13 -50 2 -11 7 -25 41 -115 13 -36 24 -69
24 -74 0 -4 9 -19 20 -33 11 -14 18 -29 15 -33 -3 -4 2 -13 10 -20 8 -7 15
-16 15 -21 0 -23 118 -175 194 -249 90 -88 103 -99 131 -112 14 -6 25 -14 25
-18 0 -9 77 -56 177 -108 95 -49 238 -103 338 -126 39 -9 79 -19 90 -22 19 -5
36 -8 95 -18 14 -3 25 -5 25 -6 0 -12 298 -31 480 -30 203 0 339 9 555 36 25
3 59 7 75 9 31 4 44 6 175 31 41 8 91 16 110 19 19 3 43 8 52 11 9 3 26 7 37
9 41 9 57 13 141 35 47 12 90 23 95 24 6 2 30 9 55 16 25 7 48 13 53 12 4 -1
7 3 7 9 0 5 4 8 8 5 5 -3 33 4 63 15 30 12 65 23 78 25 13 3 36 11 51 19 15 8
30 12 32 9 15 -15 34 49 62 206 2 14 9 46 15 72 6 27 10 51 9 55 0 5 1 15 5
23 3 8 9 33 13 55 4 22 8 45 9 50 2 6 5 24 8 40 14 73 18 93 27 135 5 25 12
59 15 75 5 28 7 43 19 103 3 13 8 32 11 43 6 19 -5 26 -19 12 -4 -5 -11 -8
-14 -9 -4 0 -25 -9 -47 -19 -22 -10 -42 -19 -45 -20 -3 -1 -23 -10 -45 -20
-22 -10 -42 -19 -45 -20 -3 -1 -18 -8 -35 -15 -16 -7 -32 -14 -35 -15 -3 -1
-16 -6 -30 -12 -171 -74 -511 -184 -640 -207 -14 -3 -25 -5 -25 -6 0 -1 -11
-3 -25 -5 -14 -2 -59 -10 -100 -18 -154 -31 -256 -40 -450 -40 -183 0 -238 5
-355 34 -129 33 -235 90 -321 174 -33 33 -98 138 -110 180 -29 97 -36 135 -39
215 -3 52 -5 97 -6 100 -1 3 0 10 1 15 1 6 2 23 2 38 -1 20 4 28 16 26 9 -1
600 -1 1312 0 l1295 1 28 128 c15 70 30 143 32 162 3 19 8 46 11 60 3 14 8 39
9 55 2 17 6 48 10 70 31 216 23 457 -21 640 -8 33 -16 68 -19 79 -17 71 -115
284 -152 331 -32 41 -36 46 -57 80 -33 52 -235 245 -256 245 -5 0 -10 5 -10
10 0 6 -7 10 -15 10 -8 0 -15 3 -15 8 0 6 -57 44 -70 47 -3 0 -16 8 -30 17
-36 24 -144 72 -231 103 -136 48 -276 76 -449 91 -62 6 -360 11 -364 6z m196
-758 c60 -14 88 -23 133 -47 75 -39 93 -54 165 -137 79 -90 117 -261 97 -430
-2 -19 -5 -45 -6 -57 l-1 -23 -726 0 -725 0 7 23 c4 12 16 42 27 67 11 25 21
47 22 50 11 37 103 193 116 198 5 2 9 8 9 13 0 5 10 21 23 35 116 136 237 221
387 273 68 24 78 27 150 37 25 3 46 7 48 9 10 9 222 1 274 -11z"/>
<path d="M28587 19083 c-2 -1 -29 -4 -62 -8 -108 -10 -157 -19 -197 -34 -13
-5 -26 -9 -30 -10 -5 0 -9 -1 -10 -2 -2 0 -13 -2 -25 -5 -12 -2 -46 -14 -75
-27 -29 -13 -56 -24 -61 -25 -18 -4 -152 -75 -164 -88 -8 -8 -18 -14 -22 -14
-10 0 -145 -101 -190 -143 -20 -18 -49 -42 -65 -55 -16 -12 -26 -22 -24 -22 3
0 -23 -30 -58 -66 -35 -36 -64 -70 -64 -75 0 -5 -4 -9 -9 -9 -5 0 -7 12 -4 28
3 15 7 38 8 52 2 14 4 25 5 25 1 0 3 11 5 25 2 14 11 57 19 95 9 39 18 79 20
90 2 11 7 38 12 60 4 22 9 49 10 60 1 11 3 20 4 20 1 0 3 10 6 23 4 21 -6 27
-31 22 -5 -1 -33 -1 -62 0 -29 0 -60 1 -68 0 -8 0 -21 0 -27 0 -7 -1 -42 -1
-78 -1 -36 1 -73 1 -82 1 -10 0 -40 0 -67 1 -27 1 -53 -1 -57 -3 -5 -3 -18 -2
-29 2 -11 4 -30 4 -42 -1 -15 -6 -23 -5 -23 2 0 8 -4 8 -13 0 -8 -6 -16 -8
-19 -6 -9 9 -81 12 -103 4 -11 -3 -29 -3 -40 1 -11 4 -30 4 -42 -1 -15 -6 -23
-5 -23 2 0 8 -4 8 -13 0 -8 -6 -16 -8 -19 -6 -9 9 -82 11 -105 3 -12 -4 -25
-3 -27 1 -3 5 -25 5 -48 1 -23 -5 -52 -4 -63 0 -25 10 -51 -3 -41 -19 4 -6 3
-11 -3 -11 -5 0 -10 -8 -9 -17 0 -10 -5 -43 -11 -73 -7 -30 -14 -66 -16 -80
-2 -14 -8 -46 -14 -73 -6 -26 -14 -64 -17 -85 -3 -20 -7 -44 -9 -52 -2 -8 -7
-29 -9 -45 -3 -17 -14 -75 -25 -129 -11 -55 -18 -103 -15 -108 3 -4 0 -8 -5
-8 -6 0 -10 -3 -9 -7 1 -5 -4 -39 -11 -78 -8 -38 -15 -79 -17 -90 -2 -11 -6
-31 -9 -45 -2 -14 -7 -36 -9 -50 -3 -14 -7 -36 -10 -50 -10 -46 -16 -75 -21
-110 -3 -19 -8 -42 -10 -50 -2 -8 -7 -28 -10 -45 -2 -16 -7 -41 -10 -55 -3
-14 -7 -38 -10 -55 -3 -16 -8 -41 -10 -55 -12 -57 -15 -76 -20 -105 -3 -16 -8
-37 -10 -45 -2 -8 -7 -31 -10 -50 -3 -19 -20 -102 -36 -185 -17 -82 -33 -168
-36 -190 -2 -21 -7 -43 -10 -48 -3 -4 -7 -23 -10 -40 -2 -18 -6 -42 -9 -54 -2
-13 -6 -35 -9 -50 -3 -16 -8 -39 -11 -53 -3 -14 -8 -35 -10 -47 -2 -13 -6 -34
-9 -48 -3 -14 -7 -37 -10 -52 -3 -16 -13 -64 -22 -108 -9 -44 -17 -89 -19
-100 -5 -37 -15 -88 -18 -94 -2 -3 -7 -31 -11 -61 -4 -30 -10 -59 -13 -65 -4
-5 -7 -19 -8 -30 -1 -18 -13 -82 -29 -155 -3 -14 -9 -50 -15 -80 -6 -30 -12
-66 -15 -80 -3 -14 -8 -36 -10 -50 -2 -14 -6 -36 -9 -50 -3 -14 -9 -41 -12
-60 -7 -36 -11 -55 -18 -89 -2 -10 -7 -34 -10 -52 -3 -19 -8 -45 -11 -59 -4
-14 -8 -34 -9 -45 -4 -25 -37 -194 -42 -217 -2 -10 -6 -28 -9 -40 -3 -13 -7
-36 -10 -53 -3 -16 -8 -41 -10 -55 -3 -14 -7 -36 -10 -50 -3 -14 -9 -47 -15
-75 -6 -27 -12 -61 -15 -75 -3 -14 -7 -36 -10 -50 -2 -14 -7 -41 -11 -60 -3
-19 -7 -39 -8 -45 -2 -9 -19 -103 -21 -115 0 -3 -4 -11 -9 -18 -4 -7 -6 -16
-3 -18 2 -3 1 -22 -4 -42 -5 -20 -12 -51 -14 -69 -3 -18 -12 -64 -20 -102 -8
-39 -17 -83 -20 -98 -3 -16 -7 -38 -9 -50 l-5 -23 563 0 564 0 16 83 c8 45 18
93 21 107 3 14 8 36 10 50 2 14 7 36 10 50 3 14 8 41 11 60 10 54 11 60 29
143 9 42 13 82 10 87 -3 6 -2 10 3 10 5 0 9 6 10 13 1 19 10 72 13 75 1 1 2
10 4 20 1 15 10 59 22 117 2 11 6 31 9 45 5 30 13 66 20 100 2 14 7 36 9 50 2
14 6 36 9 50 6 28 23 112 30 150 3 14 7 35 10 46 5 23 16 87 21 119 2 11 4 20
5 20 2 0 3 6 25 120 9 50 19 101 22 115 2 14 5 33 6 43 1 9 4 17 7 17 3 0 6
19 7 42 3 50 18 70 28 37 4 -13 14 -29 21 -37 8 -7 14 -20 14 -28 0 -8 4 -14
10 -14 5 0 16 -12 24 -27 15 -29 25 -42 109 -136 59 -66 165 -150 247 -195 59
-33 179 -81 220 -88 14 -3 39 -9 55 -14 17 -5 53 -12 80 -15 28 -3 66 -8 85
-10 36 -6 256 -6 300 -1 84 9 147 20 210 35 25 7 53 13 63 16 132 31 326 125
487 236 148 102 330 276 435 415 16 21 33 44 37 49 40 50 78 106 78 114 0 5 6
14 14 18 8 4 16 13 17 18 1 6 13 28 27 50 30 46 145 274 150 296 2 7 7 16 10
19 4 3 8 12 10 20 1 8 7 24 12 35 13 27 90 264 96 295 3 14 7 33 10 42 7 24
13 54 30 148 8 47 17 96 20 110 26 138 25 561 -2 693 -2 12 -7 38 -10 57 -3
19 -8 44 -11 55 -8 25 -11 36 -16 55 -27 119 -142 357 -211 437 -95 110 -129
145 -171 180 -47 38 -174 128 -185 131 -3 0 -32 13 -65 27 -92 41 -98 43 -125
51 -14 4 -29 9 -35 11 -59 17 -195 44 -255 49 -73 7 -249 12 -253 7z m-209
-827 c12 -3 30 -8 40 -10 9 -2 44 -17 77 -32 64 -30 178 -135 205 -189 8 -16
19 -33 25 -37 5 -4 6 -8 1 -8 -4 0 -2 -10 6 -22 8 -13 18 -34 21 -48 3 -14 10
-43 15 -65 16 -64 24 -134 24 -215 1 -76 -10 -264 -16 -310 -25 -163 -54 -282
-96 -395 -22 -61 -91 -208 -100 -215 -3 -3 -18 -26 -33 -51 -55 -97 -153 -205
-252 -280 -60 -44 -185 -116 -185 -104 0 3 -11 -2 -25 -11 -14 -9 -25 -14 -25
-10 0 3 -10 2 -23 -3 -49 -19 -106 -25 -227 -25 -146 1 -236 23 -329 84 -55
37 -67 47 -117 103 -75 86 -126 252 -127 420 -1 100 9 283 18 329 3 13 8 43
11 68 3 25 7 53 10 62 5 15 9 36 18 83 9 48 29 111 38 123 6 6 8 12 4 12 -5 0
10 45 39 115 5 11 9 22 10 25 5 22 73 144 118 212 93 140 250 283 372 337 51
23 148 53 185 58 19 3 37 7 39 9 6 6 253 -3 279 -10z"/>
<path d="M35307 19083 c-2 -1 -54 -4 -116 -8 -62 -3 -123 -7 -135 -10 -36 -7
-119 -18 -153 -19 -18 -1 -33 -5 -33 -10 0 -5 -2 -7 -5 -4 -4 3 -25 1 -48 -4
-23 -5 -53 -12 -67 -15 -33 -7 -42 -9 -60 -16 -8 -3 -49 -15 -90 -27 -41 -12
-88 -27 -105 -35 -55 -24 -110 -48 -115 -50 -29 -7 -173 -94 -178 -107 -2 -5
-9 -8 -15 -8 -7 0 -29 -16 -50 -35 -21 -19 -40 -35 -42 -35 -5 0 -90 -86 -120
-121 -32 -38 -108 -156 -106 -164 2 -4 -2 -11 -7 -14 -11 -7 -67 -149 -81
-206 -12 -47 -20 -90 -31 -165 -8 -60 -6 -310 4 -350 4 -14 9 -41 12 -60 14
-89 74 -229 134 -314 30 -43 126 -144 152 -161 8 -5 42 -28 74 -51 49 -34 154
-88 259 -134 64 -28 315 -105 370 -114 17 -2 30 -5 30 -6 0 -1 7 -3 15 -5 8
-1 40 -8 70 -14 30 -6 71 -13 90 -16 37 -6 201 -41 235 -51 11 -3 27 -7 35 -8
8 -1 22 -5 30 -8 8 -3 35 -12 60 -19 215 -62 296 -182 228 -339 -33 -78 -160
-163 -277 -185 -9 -2 -16 -4 -16 -5 0 -2 -17 -5 -65 -14 -150 -27 -520 -27
-695 0 -22 3 -51 7 -65 9 -56 8 -98 17 -165 31 -88 20 -89 20 -155 39 -30 9
-62 17 -70 19 -51 12 -243 88 -340 134 -30 15 -56 26 -58 24 -1 -2 -14 6 -29
18 -14 11 -30 20 -35 20 -6 0 -23 9 -38 20 -35 25 -41 18 -55 -70 -2 -14 -14
-74 -25 -135 -12 -60 -23 -121 -26 -135 -2 -14 -7 -36 -9 -50 -9 -42 -15 -74
-20 -100 -8 -42 -15 -74 -20 -100 -3 -14 -8 -41 -11 -60 -3 -19 -14 -74 -24
-122 -9 -49 -16 -88 -15 -88 2 0 81 -20 177 -45 95 -24 184 -46 198 -49 14 -3
36 -8 50 -11 14 -3 36 -7 50 -10 14 -3 35 -7 48 -9 49 -10 259 -45 302 -51
138 -18 288 -32 420 -41 93 -5 405 -6 485 0 84 6 219 18 235 21 8 1 35 6 60
10 97 15 101 15 185 35 28 6 59 13 69 16 26 5 208 65 221 73 6 3 15 6 21 7 14
2 187 86 194 93 3 3 21 15 40 25 19 11 51 32 71 48 20 15 39 28 42 28 12 0
151 131 192 181 68 82 191 289 179 302 -2 2 2 17 11 33 8 16 15 37 15 46 0 9
4 19 9 23 6 3 8 14 6 25 -2 11 0 22 4 24 12 8 16 75 16 286 0 231 -3 252 -47
358 -111 267 -355 434 -843 578 -33 9 -69 19 -80 21 -11 2 -27 6 -35 9 -8 4
-24 8 -35 9 -11 2 -47 10 -80 18 -33 8 -76 18 -95 21 -19 3 -46 9 -60 12 -14
3 -38 7 -55 10 -16 2 -50 9 -75 15 -25 5 -56 12 -70 15 -14 3 -34 7 -45 9 -11
3 -29 7 -40 9 -11 2 -33 9 -50 16 -16 6 -32 11 -35 11 -10 -2 -107 33 -142 50
-96 49 -131 123 -105 229 21 88 150 185 286 215 11 3 29 7 39 9 89 21 125 27
213 31 56 2 104 7 106 9 3 2 18 0 34 -4 17 -5 31 -5 35 1 3 5 9 7 14 4 5 -3
48 -8 95 -10 48 -3 98 -7 113 -9 15 -3 52 -8 82 -11 30 -3 71 -10 90 -15 19
-5 49 -11 65 -14 17 -3 41 -8 55 -11 14 -3 36 -8 50 -11 14 -3 48 -12 76 -20
28 -8 60 -16 70 -19 20 -4 215 -70 249 -84 150 -63 200 -84 211 -88 12 -4 14
69 14 438 0 244 -4 449 -8 454 -4 6 -18 11 -32 13 -27 3 -38 5 -85 15 -62 15
-81 18 -110 22 -16 2 -39 5 -50 8 -23 5 -141 24 -200 31 -22 3 -50 7 -62 10
-12 2 -54 7 -95 11 -40 4 -91 8 -113 11 -122 12 -570 26 -578 17z"/>
<path d="M11599 18996 c-13 -6 -24 -16 -24 -21 -1 -10 -16 -101 -21 -120 -2
-12 -23 -120 -30 -155 -2 -14 -14 -72 -25 -129 -12 -57 -23 -114 -25 -125 -2
-12 -6 -32 -9 -46 -3 -14 -8 -45 -11 -70 -3 -25 -10 -52 -14 -60 -4 -8 -11
-35 -14 -60 -8 -56 -16 -101 -21 -120 -3 -8 -7 -32 -11 -54 -3 -21 -8 -48 -10
-60 -3 -11 -9 -43 -14 -71 -6 -27 -13 -61 -15 -75 -3 -14 -8 -36 -10 -50 -2
-14 -7 -38 -10 -55 -7 -34 -34 -167 -41 -205 -3 -14 -7 -34 -8 -45 -6 -30 -47
-237 -52 -260 -2 -11 -7 -35 -10 -54 -3 -18 -8 -43 -10 -55 -3 -11 -7 -30 -9
-41 -2 -11 -8 -45 -14 -75 -6 -30 -13 -66 -15 -80 -3 -14 -5 -27 -6 -30 -1 -3
-3 -9 -5 -15 -1 -5 -3 -12 -4 -15 -1 -3 -4 -21 -6 -40 -3 -19 -7 -46 -10 -60
-3 -14 -8 -34 -9 -45 -4 -21 -12 -62 -21 -105 -3 -14 -8 -41 -11 -60 -3 -19
-8 -44 -11 -55 -4 -11 -7 -27 -8 -35 -2 -15 -25 -135 -40 -210 -2 -14 -7 -38
-10 -55 -7 -43 -13 -74 -19 -93 -3 -9 -8 -37 -11 -62 -4 -24 -8 -47 -10 -50
-2 -3 -6 -25 -10 -50 -4 -25 -8 -47 -10 -50 -2 -3 -6 -25 -10 -50 -4 -25 -8
-47 -10 -50 -2 -3 -6 -23 -9 -45 -3 -22 -8 -51 -11 -65 -3 -14 -7 -34 -9 -45
-3 -11 -9 -40 -14 -64 -6 -24 -8 -49 -6 -55 3 -8 152 -11 547 -9 298 1 549 2
557 2 11 1 21 34 40 134 13 72 25 135 26 140 1 4 2 8 3 10 2 1 4 13 6 27 2 14
6 36 9 50 2 14 10 50 16 80 6 30 13 66 16 80 2 14 10 50 16 80 6 30 12 64 14
75 2 11 5 31 8 45 9 40 15 72 22 110 3 19 7 40 8 45 7 26 20 92 22 110 1 11 3
20 4 20 2 0 9 33 14 70 3 17 7 37 10 45 3 8 7 32 10 52 3 21 10 57 15 80 10
45 16 77 27 143 3 22 8 44 11 48 2 4 6 22 9 40 2 18 6 43 9 57 3 14 7 36 10
50 3 14 10 50 16 80 5 30 12 66 15 80 2 14 9 45 14 70 5 25 12 61 15 80 4 19
10 53 15 75 5 22 12 56 15 75 3 19 15 79 26 133 11 54 22 111 24 125 2 15 4
27 5 27 1 0 6 25 14 75 2 14 7 32 10 40 3 8 7 31 10 50 3 19 8 46 11 60 3 14
9 50 15 80 6 30 12 65 15 78 3 12 7 32 10 45 3 12 9 47 15 77 6 30 12 66 15
80 3 14 7 39 10 55 3 17 10 50 15 75 5 25 12 56 14 70 16 82 32 167 42 210 3
14 7 36 9 50 2 14 8 44 13 68 7 29 7 44 -1 49 -15 9 -58 10 -63 1 -3 -4 -11
-5 -19 -2 -22 9 -78 10 -100 3 -11 -3 -29 -3 -40 1 -11 4 -30 4 -42 -1 -15 -6
-23 -5 -23 2 0 8 -4 8 -13 0 -8 -6 -16 -8 -19 -6 -9 9 -82 11 -105 3 -13 -4
-25 -3 -28 3 -4 5 -11 7 -16 3 -5 -3 -34 -5 -64 -4 -30 0 -62 1 -70 0 -8 0
-21 0 -27 0 -7 -1 -42 -1 -78 -1 -36 1 -73 1 -82 1 -10 0 -40 0 -67 1 -27 1
-53 -1 -57 -3 -5 -3 -18 -2 -29 2 -11 4 -30 4 -42 -1 -14 -5 -23 -4 -27 4 -3
9 -5 9 -5 0 -1 -8 -10 -9 -30 -3 -18 5 -37 4 -52 -4z"/>
<path d="M3017 17024 c-1 -1 -31 -5 -66 -8 -35 -4 -91 -14 -125 -22 -33 -8
-72 -17 -86 -20 -14 -2 -34 -8 -45 -13 -11 -5 -36 -15 -55 -22 -98 -35 -268
-133 -350 -202 -86 -72 -198 -191 -224 -236 -5 -9 -12 -18 -15 -21 -15 -12
-135 -218 -134 -230 0 -3 -4 -16 -9 -30 -26 -66 -57 -158 -61 -185 -3 -16 -10
-52 -16 -79 -7 -27 -10 -55 -7 -62 3 -8 2 -16 -3 -18 -8 -5 -6 -292 2 -336 3
-14 8 -41 12 -60 43 -238 175 -484 355 -660 106 -103 104 -101 176 -153 141
-100 344 -184 512 -212 17 -3 47 -8 65 -11 65 -13 344 -5 397 11 8 2 31 7 50
11 44 8 64 12 68 14 1 2 5 3 10 4 87 20 358 150 370 178 2 5 10 8 17 8 7 0 15
3 17 8 2 4 24 24 49 44 160 128 298 311 377 498 37 88 69 187 77 238 4 20 9
44 12 52 5 16 14 125 17 220 1 30 -2 82 -7 115 -4 33 -10 76 -12 95 -9 72 -44
202 -72 267 -9 21 -17 40 -18 43 -2 11 -47 97 -70 135 -13 22 -27 47 -31 55
-5 8 -13 20 -18 26 -6 6 -18 22 -26 35 -38 58 -148 172 -227 236 -27 21 -49
41 -51 46 -2 4 -9 7 -16 7 -7 0 -21 8 -32 18 -70 61 -297 159 -434 187 -8 2
-15 4 -15 5 0 1 -11 3 -25 5 -14 2 -45 6 -70 10 -41 6 -257 14 -263 9z"/>
</g>
</svg>
